<svg xmlns="http://www.w3.org/2000/svg" xmlns:xlink="http://www.w3.org/1999/xlink" width="500" zoomAndPan="magnify" viewBox="0 0 375 374.999991" height="500" preserveAspectRatio="xMidYMid meet" version="1.0"><defs><g/><clipPath id="cbc1d2fc7a"><rect x="0" width="207" y="0" height="240"/></clipPath></defs><rect x="-37.5" width="450" fill="#ffffff" y="-37.499999" height="449.999989" fill-opacity="1"/><rect x="-37.5" width="450" fill="#f32769" y="-37.499999" height="449.999989" fill-opacity="1"/><g transform="matrix(1, 0, 0, 1, 78, 57)"><g clip-path="url(#cbc1d2fc7a)"><g fill="#c1f400" fill-opacity="1"><g transform="translate(2.341524, 198.46181)"><g><path d="M 101.28125 -38.609375 C 101.28125 -26.003906 97.203125 -16.414062 89.046875 -9.84375 C 80.890625 -3.28125 70.375 0 57.5 0 L 12.9375 0 C 12.269531 0 11.703125 -0.226562 11.234375 -0.6875 C 10.773438 -1.15625 10.546875 -1.722656 10.546875 -2.390625 L 10.546875 -136.90625 C 10.546875 -137.5625 10.773438 -138.125 11.234375 -138.59375 C 11.703125 -139.0625 12.269531 -139.296875 12.9375 -139.296875 L 54.515625 -139.296875 C 68.710938 -139.296875 79.722656 -136.144531 87.546875 -129.84375 C 95.378906 -123.539062 99.296875 -113.953125 99.296875 -101.078125 C 99.296875 -87.953125 94.1875 -78.46875 83.96875 -72.625 C 83.300781 -72.226562 83.234375 -71.832031 83.765625 -71.4375 C 95.441406 -64.800781 101.28125 -53.859375 101.28125 -38.609375 Z M 39.59375 -115.21875 C 38.9375 -115.21875 38.609375 -114.882812 38.609375 -114.21875 L 38.609375 -82.96875 C 38.609375 -82.3125 38.9375 -81.984375 39.59375 -81.984375 L 54.71875 -81.984375 C 60.03125 -81.984375 64.207031 -83.441406 67.25 -86.359375 C 70.300781 -89.273438 71.828125 -93.320312 71.828125 -98.5 C 71.828125 -103.800781 70.332031 -107.910156 67.34375 -110.828125 C 64.363281 -113.753906 60.15625 -115.21875 54.71875 -115.21875 Z M 56.3125 -24.28125 C 61.613281 -24.28125 65.753906 -25.835938 68.734375 -28.953125 C 71.722656 -32.066406 73.21875 -36.476562 73.21875 -42.1875 C 73.21875 -47.882812 71.722656 -52.359375 68.734375 -55.609375 C 65.753906 -58.859375 61.613281 -60.484375 56.3125 -60.484375 L 39.59375 -60.484375 C 38.9375 -60.484375 38.609375 -60.15625 38.609375 -59.5 L 38.609375 -25.265625 C 38.609375 -24.609375 38.9375 -24.28125 39.59375 -24.28125 Z M 56.3125 -24.28125 "/></g></g></g><g fill="#c1f400" fill-opacity="1"><g transform="translate(92.871766, 198.46181)"><g/></g></g><g fill="#c1f400" fill-opacity="1"><g transform="translate(114.756433, 198.46181)"><g><path d="M 5.578125 0 C 4.910156 0 4.34375 -0.226562 3.875 -0.6875 C 3.414062 -1.15625 3.1875 -1.722656 3.1875 -2.390625 L 3.1875 -18.90625 C 3.1875 -19.570312 3.414062 -20.132812 3.875 -20.59375 C 4.34375 -21.0625 4.910156 -21.296875 5.578125 -21.296875 L 88.34375 -21.296875 C 89.007812 -21.296875 89.570312 -21.0625 90.03125 -20.59375 C 90.5 -20.132812 90.734375 -19.570312 90.734375 -18.90625 L 90.734375 -2.390625 C 90.734375 -1.722656 90.5 -1.15625 90.03125 -0.6875 C 89.570312 -0.226562 89.007812 0 88.34375 0 Z M 5.578125 0 "/></g></g></g></g></g></svg>