<svg xmlns="http://www.w3.org/2000/svg" xmlns:xlink="http://www.w3.org/1999/xlink" width="500" zoomAndPan="magnify" viewBox="0 0 375 374.999991" height="500" preserveAspectRatio="xMidYMid meet" version="1.0"><defs><g/></defs><g fill="#c1f400" fill-opacity="1"><g transform="translate(50.658447, 200.623684)"><g><path d="M 16.640625 -6.34375 C 16.640625 -4.269531 15.96875 -2.691406 14.625 -1.609375 C 13.289062 -0.535156 11.566406 0 9.453125 0 L 2.125 0 C 2.019531 0 1.925781 -0.0351562 1.84375 -0.109375 C 1.769531 -0.191406 1.734375 -0.285156 1.734375 -0.390625 L 1.734375 -22.5 C 1.734375 -22.601562 1.769531 -22.691406 1.84375 -22.765625 C 1.925781 -22.847656 2.019531 -22.890625 2.125 -22.890625 L 8.953125 -22.890625 C 11.285156 -22.890625 13.09375 -22.367188 14.375 -21.328125 C 15.664062 -20.296875 16.3125 -18.722656 16.3125 -16.609375 C 16.3125 -14.453125 15.472656 -12.894531 13.796875 -11.9375 C 13.691406 -11.875 13.679688 -11.804688 13.765625 -11.734375 C 15.679688 -10.648438 16.640625 -8.851562 16.640625 -6.34375 Z M 6.515625 -18.9375 C 6.398438 -18.9375 6.34375 -18.878906 6.34375 -18.765625 L 6.34375 -13.640625 C 6.34375 -13.523438 6.398438 -13.46875 6.515625 -13.46875 L 9 -13.46875 C 9.863281 -13.46875 10.546875 -13.707031 11.046875 -14.1875 C 11.554688 -14.664062 11.8125 -15.332031 11.8125 -16.1875 C 11.8125 -17.0625 11.5625 -17.738281 11.0625 -18.21875 C 10.570312 -18.695312 9.882812 -18.9375 9 -18.9375 Z M 9.25 -3.984375 C 10.125 -3.984375 10.804688 -4.238281 11.296875 -4.75 C 11.785156 -5.269531 12.03125 -6 12.03125 -6.9375 C 12.03125 -7.875 11.785156 -8.609375 11.296875 -9.140625 C 10.804688 -9.671875 10.125 -9.9375 9.25 -9.9375 L 6.515625 -9.9375 C 6.398438 -9.9375 6.34375 -9.882812 6.34375 -9.78125 L 6.34375 -4.15625 C 6.34375 -4.039062 6.398438 -3.984375 6.515625 -3.984375 Z M 9.25 -3.984375 "/></g></g></g><g fill="#c1f400" fill-opacity="1"><g transform="translate(67.201979, 200.623684)"><g><path d="M 2.125 0 C 2.019531 0 1.925781 -0.0351562 1.84375 -0.109375 C 1.769531 -0.191406 1.734375 -0.285156 1.734375 -0.390625 L 1.734375 -22.5 C 1.734375 -22.601562 1.769531 -22.691406 1.84375 -22.765625 C 1.925781 -22.847656 2.019531 -22.890625 2.125 -22.890625 L 5.953125 -22.890625 C 6.054688 -22.890625 6.144531 -22.847656 6.21875 -22.765625 C 6.300781 -22.691406 6.34375 -22.601562 6.34375 -22.5 L 6.34375 -0.390625 C 6.34375 -0.285156 6.300781 -0.191406 6.21875 -0.109375 C 6.144531 -0.0351562 6.054688 0 5.953125 0 Z M 2.125 0 "/></g></g></g><g fill="#c1f400" fill-opacity="1"><g transform="translate(73.969636, 200.623684)"><g><path d="M 8.921875 0.296875 C 7.421875 0.296875 6.097656 -0.00390625 4.953125 -0.609375 C 3.804688 -1.222656 2.914062 -2.085938 2.28125 -3.203125 C 1.65625 -4.316406 1.34375 -5.613281 1.34375 -7.09375 L 1.34375 -15.796875 C 1.34375 -17.253906 1.65625 -18.539062 2.28125 -19.65625 C 2.914062 -20.769531 3.804688 -21.628906 4.953125 -22.234375 C 6.097656 -22.847656 7.421875 -23.15625 8.921875 -23.15625 C 10.429688 -23.15625 11.765625 -22.847656 12.921875 -22.234375 C 14.078125 -21.628906 14.96875 -20.769531 15.59375 -19.65625 C 16.226562 -18.539062 16.546875 -17.253906 16.546875 -15.796875 L 16.546875 -7.09375 C 16.546875 -5.613281 16.226562 -4.316406 15.59375 -3.203125 C 14.96875 -2.085938 14.078125 -1.222656 12.921875 -0.609375 C 11.765625 -0.00390625 10.429688 0.296875 8.921875 0.296875 Z M 8.921875 -3.65625 C 9.835938 -3.65625 10.566406 -3.957031 11.109375 -4.5625 C 11.660156 -5.164062 11.9375 -5.945312 11.9375 -6.90625 L 11.9375 -15.921875 C 11.9375 -16.898438 11.660156 -17.691406 11.109375 -18.296875 C 10.566406 -18.898438 9.835938 -19.203125 8.921875 -19.203125 C 8.035156 -19.203125 7.316406 -18.898438 6.765625 -18.296875 C 6.222656 -17.691406 5.953125 -16.898438 5.953125 -15.921875 L 5.953125 -6.90625 C 5.953125 -5.945312 6.222656 -5.164062 6.765625 -4.5625 C 7.316406 -3.957031 8.035156 -3.65625 8.921875 -3.65625 Z M 8.921875 -3.65625 "/></g></g></g><g fill="#c1f400" fill-opacity="1"><g transform="translate(90.57856, 200.623684)"><g><path d="M 0.921875 0 C 0.804688 0 0.707031 -0.0351562 0.625 -0.109375 C 0.550781 -0.191406 0.515625 -0.285156 0.515625 -0.390625 L 0.515625 -3.109375 C 0.515625 -3.210938 0.550781 -3.300781 0.625 -3.375 C 0.707031 -3.457031 0.804688 -3.5 0.921875 -3.5 L 14.515625 -3.5 C 14.628906 -3.5 14.722656 -3.457031 14.796875 -3.375 C 14.867188 -3.300781 14.90625 -3.210938 14.90625 -3.109375 L 14.90625 -0.390625 C 14.90625 -0.285156 14.867188 -0.191406 14.796875 -0.109375 C 14.722656 -0.0351562 14.628906 0 14.515625 0 Z M 0.921875 0 "/></g></g></g><g fill="#c1f400" fill-opacity="1"><g transform="translate(104.735347, 200.623684)"><g><path d="M 16.640625 -6.34375 C 16.640625 -4.269531 15.96875 -2.691406 14.625 -1.609375 C 13.289062 -0.535156 11.566406 0 9.453125 0 L 2.125 0 C 2.019531 0 1.925781 -0.0351562 1.84375 -0.109375 C 1.769531 -0.191406 1.734375 -0.285156 1.734375 -0.390625 L 1.734375 -22.5 C 1.734375 -22.601562 1.769531 -22.691406 1.84375 -22.765625 C 1.925781 -22.847656 2.019531 -22.890625 2.125 -22.890625 L 8.953125 -22.890625 C 11.285156 -22.890625 13.09375 -22.367188 14.375 -21.328125 C 15.664062 -20.296875 16.3125 -18.722656 16.3125 -16.609375 C 16.3125 -14.453125 15.472656 -12.894531 13.796875 -11.9375 C 13.691406 -11.875 13.679688 -11.804688 13.765625 -11.734375 C 15.679688 -10.648438 16.640625 -8.851562 16.640625 -6.34375 Z M 6.515625 -18.9375 C 6.398438 -18.9375 6.34375 -18.878906 6.34375 -18.765625 L 6.34375 -13.640625 C 6.34375 -13.523438 6.398438 -13.46875 6.515625 -13.46875 L 9 -13.46875 C 9.863281 -13.46875 10.546875 -13.707031 11.046875 -14.1875 C 11.554688 -14.664062 11.8125 -15.332031 11.8125 -16.1875 C 11.8125 -17.0625 11.5625 -17.738281 11.0625 -18.21875 C 10.570312 -18.695312 9.882812 -18.9375 9 -18.9375 Z M 9.25 -3.984375 C 10.125 -3.984375 10.804688 -4.238281 11.296875 -4.75 C 11.785156 -5.269531 12.03125 -6 12.03125 -6.9375 C 12.03125 -7.875 11.785156 -8.609375 11.296875 -9.140625 C 10.804688 -9.671875 10.125 -9.9375 9.25 -9.9375 L 6.515625 -9.9375 C 6.398438 -9.9375 6.34375 -9.882812 6.34375 -9.78125 L 6.34375 -4.15625 C 6.34375 -4.039062 6.398438 -3.984375 6.515625 -3.984375 Z M 9.25 -3.984375 "/></g></g></g><g fill="#c1f400" fill-opacity="1"><g transform="translate(121.278879, 200.623684)"><g><path d="M 9.0625 0.265625 C 7.570312 0.265625 6.257812 -0.0351562 5.125 -0.640625 C 4 -1.253906 3.125 -2.113281 2.5 -3.21875 C 1.875 -4.320312 1.5625 -5.59375 1.5625 -7.03125 L 1.5625 -22.5 C 1.5625 -22.601562 1.597656 -22.691406 1.671875 -22.765625 C 1.753906 -22.847656 1.851562 -22.890625 1.96875 -22.890625 L 5.78125 -22.890625 C 5.894531 -22.890625 5.988281 -22.847656 6.0625 -22.765625 C 6.144531 -22.691406 6.1875 -22.601562 6.1875 -22.5 L 6.1875 -6.796875 C 6.1875 -5.859375 6.445312 -5.109375 6.96875 -4.546875 C 7.488281 -3.984375 8.1875 -3.703125 9.0625 -3.703125 C 9.925781 -3.703125 10.617188 -3.984375 11.140625 -4.546875 C 11.671875 -5.109375 11.9375 -5.859375 11.9375 -6.796875 L 11.9375 -22.5 C 11.9375 -22.601562 11.972656 -22.691406 12.046875 -22.765625 C 12.128906 -22.847656 12.222656 -22.890625 12.328125 -22.890625 L 16.15625 -22.890625 C 16.257812 -22.890625 16.347656 -22.847656 16.421875 -22.765625 C 16.503906 -22.691406 16.546875 -22.601562 16.546875 -22.5 L 16.546875 -7.03125 C 16.546875 -5.59375 16.234375 -4.320312 15.609375 -3.21875 C 14.992188 -2.113281 14.117188 -1.253906 12.984375 -0.640625 C 11.847656 -0.0351562 10.539062 0.265625 9.0625 0.265625 Z M 9.0625 0.265625 "/></g></g></g><g fill="#c1f400" fill-opacity="1"><g transform="translate(138.116673, 200.623684)"><g><path d="M 8.59375 0.265625 C 7.09375 0.265625 5.773438 0 4.640625 -0.53125 C 3.503906 -1.070312 2.625 -1.828125 2 -2.796875 C 1.382812 -3.765625 1.078125 -4.878906 1.078125 -6.140625 L 1.078125 -7 C 1.078125 -7.101562 1.113281 -7.191406 1.1875 -7.265625 C 1.269531 -7.347656 1.363281 -7.390625 1.46875 -7.390625 L 5.234375 -7.390625 C 5.335938 -7.390625 5.425781 -7.347656 5.5 -7.265625 C 5.582031 -7.191406 5.625 -7.101562 5.625 -7 L 5.625 -6.375 C 5.625 -5.613281 5.90625 -4.976562 6.46875 -4.46875 C 7.039062 -3.957031 7.804688 -3.703125 8.765625 -3.703125 C 9.617188 -3.703125 10.265625 -3.914062 10.703125 -4.34375 C 11.148438 -4.78125 11.375 -5.335938 11.375 -6.015625 C 11.375 -6.515625 11.234375 -6.941406 10.953125 -7.296875 C 10.671875 -7.660156 10.273438 -8 9.765625 -8.3125 C 9.253906 -8.632812 8.460938 -9.066406 7.390625 -9.609375 C 6.078125 -10.265625 5.003906 -10.875 4.171875 -11.4375 C 3.347656 -12.007812 2.640625 -12.742188 2.046875 -13.640625 C 1.460938 -14.535156 1.171875 -15.613281 1.171875 -16.875 C 1.171875 -18.132812 1.46875 -19.238281 2.0625 -20.1875 C 2.664062 -21.132812 3.515625 -21.863281 4.609375 -22.375 C 5.703125 -22.894531 6.945312 -23.15625 8.34375 -23.15625 C 9.800781 -23.15625 11.097656 -22.875 12.234375 -22.3125 C 13.367188 -21.757812 14.25 -20.984375 14.875 -19.984375 C 15.507812 -18.984375 15.828125 -17.828125 15.828125 -16.515625 L 15.828125 -15.859375 C 15.828125 -15.753906 15.785156 -15.660156 15.703125 -15.578125 C 15.628906 -15.503906 15.539062 -15.46875 15.4375 -15.46875 L 11.671875 -15.46875 C 11.566406 -15.46875 11.472656 -15.503906 11.390625 -15.578125 C 11.316406 -15.660156 11.28125 -15.753906 11.28125 -15.859375 L 11.28125 -16.453125 C 11.28125 -17.234375 11.003906 -17.882812 10.453125 -18.40625 C 9.910156 -18.9375 9.171875 -19.203125 8.234375 -19.203125 C 7.453125 -19.203125 6.835938 -19 6.390625 -18.59375 C 5.941406 -18.1875 5.71875 -17.625 5.71875 -16.90625 C 5.71875 -16.40625 5.847656 -15.96875 6.109375 -15.59375 C 6.378906 -15.226562 6.785156 -14.875 7.328125 -14.53125 C 7.867188 -14.195312 8.695312 -13.757812 9.8125 -13.21875 L 10.5 -12.8125 C 11.757812 -12.113281 12.742188 -11.507812 13.453125 -11 C 14.160156 -10.488281 14.753906 -9.835938 15.234375 -9.046875 C 15.710938 -8.265625 15.953125 -7.320312 15.953125 -6.21875 C 15.953125 -4.226562 15.28125 -2.648438 13.9375 -1.484375 C 12.601562 -0.316406 10.820312 0.265625 8.59375 0.265625 Z M 8.59375 0.265625 "/></g></g></g><g fill="#c1f400" fill-opacity="1"><g transform="translate(153.842834, 200.623684)"><g><path d="M 2.125 0 C 2.019531 0 1.925781 -0.0351562 1.84375 -0.109375 C 1.769531 -0.191406 1.734375 -0.285156 1.734375 -0.390625 L 1.734375 -22.5 C 1.734375 -22.601562 1.769531 -22.691406 1.84375 -22.765625 C 1.925781 -22.847656 2.019531 -22.890625 2.125 -22.890625 L 5.953125 -22.890625 C 6.054688 -22.890625 6.144531 -22.847656 6.21875 -22.765625 C 6.300781 -22.691406 6.34375 -22.601562 6.34375 -22.5 L 6.34375 -0.390625 C 6.34375 -0.285156 6.300781 -0.191406 6.21875 -0.109375 C 6.144531 -0.0351562 6.054688 0 5.953125 0 Z M 2.125 0 "/></g></g></g><g fill="#c1f400" fill-opacity="1"><g transform="translate(160.610492, 200.623684)"><g><path d="M 12.984375 -22.5 C 12.984375 -22.601562 13.019531 -22.691406 13.09375 -22.765625 C 13.175781 -22.847656 13.269531 -22.890625 13.375 -22.890625 L 17.171875 -22.890625 C 17.273438 -22.890625 17.363281 -22.847656 17.4375 -22.765625 C 17.519531 -22.691406 17.5625 -22.601562 17.5625 -22.5 L 17.5625 -0.390625 C 17.5625 -0.285156 17.519531 -0.191406 17.4375 -0.109375 C 17.363281 -0.0351562 17.273438 0 17.171875 0 L 13.171875 0 C 12.960938 0 12.8125 -0.0976562 12.71875 -0.296875 L 6.46875 -13.609375 C 6.425781 -13.671875 6.382812 -13.703125 6.34375 -13.703125 C 6.300781 -13.703125 6.28125 -13.660156 6.28125 -13.578125 L 6.3125 -0.390625 C 6.3125 -0.285156 6.269531 -0.191406 6.1875 -0.109375 C 6.113281 -0.0351562 6.023438 0 5.921875 0 L 2.125 0 C 2.019531 0 1.925781 -0.0351562 1.84375 -0.109375 C 1.769531 -0.191406 1.734375 -0.285156 1.734375 -0.390625 L 1.734375 -22.5 C 1.734375 -22.601562 1.769531 -22.691406 1.84375 -22.765625 C 1.925781 -22.847656 2.019531 -22.890625 2.125 -22.890625 L 6.078125 -22.890625 C 6.296875 -22.890625 6.453125 -22.789062 6.546875 -22.59375 L 12.78125 -9.28125 C 12.832031 -9.21875 12.878906 -9.1875 12.921875 -9.1875 C 12.960938 -9.1875 12.984375 -9.234375 12.984375 -9.328125 Z M 12.984375 -22.5 "/></g></g></g><g fill="#c1f400" fill-opacity="1"><g transform="translate(178.625311, 200.623684)"><g><path d="M 15.671875 -19.328125 C 15.671875 -19.210938 15.628906 -19.117188 15.546875 -19.046875 C 15.472656 -18.972656 15.378906 -18.9375 15.265625 -18.9375 L 6.515625 -18.9375 C 6.398438 -18.9375 6.34375 -18.878906 6.34375 -18.765625 L 6.34375 -13.671875 C 6.34375 -13.554688 6.398438 -13.5 6.515625 -13.5 L 11.96875 -13.5 C 12.082031 -13.5 12.175781 -13.460938 12.25 -13.390625 C 12.320312 -13.316406 12.359375 -13.222656 12.359375 -13.109375 L 12.359375 -9.9375 C 12.359375 -9.832031 12.320312 -9.738281 12.25 -9.65625 C 12.175781 -9.582031 12.082031 -9.546875 11.96875 -9.546875 L 6.515625 -9.546875 C 6.398438 -9.546875 6.34375 -9.492188 6.34375 -9.390625 L 6.34375 -4.125 C 6.34375 -4.007812 6.398438 -3.953125 6.515625 -3.953125 L 15.265625 -3.953125 C 15.378906 -3.953125 15.472656 -3.914062 15.546875 -3.84375 C 15.628906 -3.769531 15.671875 -3.675781 15.671875 -3.5625 L 15.671875 -0.390625 C 15.671875 -0.285156 15.628906 -0.191406 15.546875 -0.109375 C 15.472656 -0.0351562 15.378906 0 15.265625 0 L 2.125 0 C 2.019531 0 1.925781 -0.0351562 1.84375 -0.109375 C 1.769531 -0.191406 1.734375 -0.285156 1.734375 -0.390625 L 1.734375 -22.5 C 1.734375 -22.601562 1.769531 -22.691406 1.84375 -22.765625 C 1.925781 -22.847656 2.019531 -22.890625 2.125 -22.890625 L 15.265625 -22.890625 C 15.378906 -22.890625 15.472656 -22.847656 15.546875 -22.765625 C 15.628906 -22.691406 15.671875 -22.601562 15.671875 -22.5 Z M 15.671875 -19.328125 "/></g></g></g><g fill="#c1f400" fill-opacity="1"><g transform="translate(194.05721, 200.623684)"><g><path d="M 8.59375 0.265625 C 7.09375 0.265625 5.773438 0 4.640625 -0.53125 C 3.503906 -1.070312 2.625 -1.828125 2 -2.796875 C 1.382812 -3.765625 1.078125 -4.878906 1.078125 -6.140625 L 1.078125 -7 C 1.078125 -7.101562 1.113281 -7.191406 1.1875 -7.265625 C 1.269531 -7.347656 1.363281 -7.390625 1.46875 -7.390625 L 5.234375 -7.390625 C 5.335938 -7.390625 5.425781 -7.347656 5.5 -7.265625 C 5.582031 -7.191406 5.625 -7.101562 5.625 -7 L 5.625 -6.375 C 5.625 -5.613281 5.90625 -4.976562 6.46875 -4.46875 C 7.039062 -3.957031 7.804688 -3.703125 8.765625 -3.703125 C 9.617188 -3.703125 10.265625 -3.914062 10.703125 -4.34375 C 11.148438 -4.78125 11.375 -5.335938 11.375 -6.015625 C 11.375 -6.515625 11.234375 -6.941406 10.953125 -7.296875 C 10.671875 -7.660156 10.273438 -8 9.765625 -8.3125 C 9.253906 -8.632812 8.460938 -9.066406 7.390625 -9.609375 C 6.078125 -10.265625 5.003906 -10.875 4.171875 -11.4375 C 3.347656 -12.007812 2.640625 -12.742188 2.046875 -13.640625 C 1.460938 -14.535156 1.171875 -15.613281 1.171875 -16.875 C 1.171875 -18.132812 1.46875 -19.238281 2.0625 -20.1875 C 2.664062 -21.132812 3.515625 -21.863281 4.609375 -22.375 C 5.703125 -22.894531 6.945312 -23.15625 8.34375 -23.15625 C 9.800781 -23.15625 11.097656 -22.875 12.234375 -22.3125 C 13.367188 -21.757812 14.25 -20.984375 14.875 -19.984375 C 15.507812 -18.984375 15.828125 -17.828125 15.828125 -16.515625 L 15.828125 -15.859375 C 15.828125 -15.753906 15.785156 -15.660156 15.703125 -15.578125 C 15.628906 -15.503906 15.539062 -15.46875 15.4375 -15.46875 L 11.671875 -15.46875 C 11.566406 -15.46875 11.472656 -15.503906 11.390625 -15.578125 C 11.316406 -15.660156 11.28125 -15.753906 11.28125 -15.859375 L 11.28125 -16.453125 C 11.28125 -17.234375 11.003906 -17.882812 10.453125 -18.40625 C 9.910156 -18.9375 9.171875 -19.203125 8.234375 -19.203125 C 7.453125 -19.203125 6.835938 -19 6.390625 -18.59375 C 5.941406 -18.1875 5.71875 -17.625 5.71875 -16.90625 C 5.71875 -16.40625 5.847656 -15.96875 6.109375 -15.59375 C 6.378906 -15.226562 6.785156 -14.875 7.328125 -14.53125 C 7.867188 -14.195312 8.695312 -13.757812 9.8125 -13.21875 L 10.5 -12.8125 C 11.757812 -12.113281 12.742188 -11.507812 13.453125 -11 C 14.160156 -10.488281 14.753906 -9.835938 15.234375 -9.046875 C 15.710938 -8.265625 15.953125 -7.320312 15.953125 -6.21875 C 15.953125 -4.226562 15.28125 -2.648438 13.9375 -1.484375 C 12.601562 -0.316406 10.820312 0.265625 8.59375 0.265625 Z M 8.59375 0.265625 "/></g></g></g><g fill="#c1f400" fill-opacity="1"><g transform="translate(209.783371, 200.623684)"><g><path d="M 8.59375 0.265625 C 7.09375 0.265625 5.773438 0 4.640625 -0.53125 C 3.503906 -1.070312 2.625 -1.828125 2 -2.796875 C 1.382812 -3.765625 1.078125 -4.878906 1.078125 -6.140625 L 1.078125 -7 C 1.078125 -7.101562 1.113281 -7.191406 1.1875 -7.265625 C 1.269531 -7.347656 1.363281 -7.390625 1.46875 -7.390625 L 5.234375 -7.390625 C 5.335938 -7.390625 5.425781 -7.347656 5.5 -7.265625 C 5.582031 -7.191406 5.625 -7.101562 5.625 -7 L 5.625 -6.375 C 5.625 -5.613281 5.90625 -4.976562 6.46875 -4.46875 C 7.039062 -3.957031 7.804688 -3.703125 8.765625 -3.703125 C 9.617188 -3.703125 10.265625 -3.914062 10.703125 -4.34375 C 11.148438 -4.78125 11.375 -5.335938 11.375 -6.015625 C 11.375 -6.515625 11.234375 -6.941406 10.953125 -7.296875 C 10.671875 -7.660156 10.273438 -8 9.765625 -8.3125 C 9.253906 -8.632812 8.460938 -9.066406 7.390625 -9.609375 C 6.078125 -10.265625 5.003906 -10.875 4.171875 -11.4375 C 3.347656 -12.007812 2.640625 -12.742188 2.046875 -13.640625 C 1.460938 -14.535156 1.171875 -15.613281 1.171875 -16.875 C 1.171875 -18.132812 1.46875 -19.238281 2.0625 -20.1875 C 2.664062 -21.132812 3.515625 -21.863281 4.609375 -22.375 C 5.703125 -22.894531 6.945312 -23.15625 8.34375 -23.15625 C 9.800781 -23.15625 11.097656 -22.875 12.234375 -22.3125 C 13.367188 -21.757812 14.25 -20.984375 14.875 -19.984375 C 15.507812 -18.984375 15.828125 -17.828125 15.828125 -16.515625 L 15.828125 -15.859375 C 15.828125 -15.753906 15.785156 -15.660156 15.703125 -15.578125 C 15.628906 -15.503906 15.539062 -15.46875 15.4375 -15.46875 L 11.671875 -15.46875 C 11.566406 -15.46875 11.472656 -15.503906 11.390625 -15.578125 C 11.316406 -15.660156 11.28125 -15.753906 11.28125 -15.859375 L 11.28125 -16.453125 C 11.28125 -17.234375 11.003906 -17.882812 10.453125 -18.40625 C 9.910156 -18.9375 9.171875 -19.203125 8.234375 -19.203125 C 7.453125 -19.203125 6.835938 -19 6.390625 -18.59375 C 5.941406 -18.1875 5.71875 -17.625 5.71875 -16.90625 C 5.71875 -16.40625 5.847656 -15.96875 6.109375 -15.59375 C 6.378906 -15.226562 6.785156 -14.875 7.328125 -14.53125 C 7.867188 -14.195312 8.695312 -13.757812 9.8125 -13.21875 L 10.5 -12.8125 C 11.757812 -12.113281 12.742188 -11.507812 13.453125 -11 C 14.160156 -10.488281 14.753906 -9.835938 15.234375 -9.046875 C 15.710938 -8.265625 15.953125 -7.320312 15.953125 -6.21875 C 15.953125 -4.226562 15.28125 -2.648438 13.9375 -1.484375 C 12.601562 -0.316406 10.820312 0.265625 8.59375 0.265625 Z M 8.59375 0.265625 "/></g></g></g><g fill="#c1f400" fill-opacity="1"><g transform="translate(225.513908, 200.623684)"><g/></g></g><g fill="#c1f400" fill-opacity="1"><g transform="translate(230.787345, 200.623684)"><g><path d="M 7.328125 0.265625 C 5.515625 0.265625 4.085938 -0.1875 3.046875 -1.09375 C 2.015625 -2 1.5 -3.238281 1.5 -4.8125 C 1.5 -5.007812 1.519531 -5.300781 1.5625 -5.6875 L 1.671875 -6.578125 C 1.710938 -6.796875 1.832031 -6.90625 2.03125 -6.90625 L 3.5625 -6.90625 C 3.675781 -6.90625 3.757812 -6.867188 3.8125 -6.796875 C 3.863281 -6.734375 3.878906 -6.660156 3.859375 -6.578125 L 3.765625 -5.828125 C 3.742188 -5.691406 3.734375 -5.492188 3.734375 -5.234375 C 3.734375 -4.179688 4.085938 -3.335938 4.796875 -2.703125 C 5.503906 -2.078125 6.46875 -1.765625 7.6875 -1.765625 C 9.039062 -1.765625 10.128906 -2.164062 10.953125 -2.96875 C 11.785156 -3.78125 12.203125 -4.828125 12.203125 -6.109375 C 12.203125 -7.023438 11.890625 -7.789062 11.265625 -8.40625 C 10.640625 -9.019531 9.546875 -9.796875 7.984375 -10.734375 C 6.867188 -11.378906 5.984375 -11.945312 5.328125 -12.4375 C 4.671875 -12.925781 4.140625 -13.507812 3.734375 -14.1875 C 3.335938 -14.863281 3.140625 -15.671875 3.140625 -16.609375 C 3.140625 -16.804688 3.160156 -17.101562 3.203125 -17.5 C 3.421875 -19.257812 4.140625 -20.640625 5.359375 -21.640625 C 6.578125 -22.648438 8.101562 -23.15625 9.9375 -23.15625 C 11.726562 -23.15625 13.132812 -22.691406 14.15625 -21.765625 C 15.1875 -20.835938 15.703125 -19.585938 15.703125 -18.015625 C 15.703125 -17.816406 15.675781 -17.503906 15.625 -17.078125 L 15.53125 -16.3125 C 15.53125 -16.226562 15.5 -16.148438 15.4375 -16.078125 C 15.375 -16.015625 15.296875 -15.984375 15.203125 -15.984375 L 13.609375 -15.984375 C 13.390625 -15.984375 13.300781 -16.09375 13.34375 -16.3125 L 13.40625 -17.03125 C 13.425781 -17.1875 13.4375 -17.394531 13.4375 -17.65625 C 13.4375 -18.707031 13.101562 -19.546875 12.4375 -20.171875 C 11.78125 -20.804688 10.847656 -21.125 9.640625 -21.125 C 8.359375 -21.125 7.328125 -20.753906 6.546875 -20.015625 C 5.773438 -19.273438 5.390625 -18.238281 5.390625 -16.90625 C 5.390625 -16.289062 5.53125 -15.765625 5.8125 -15.328125 C 6.101562 -14.898438 6.515625 -14.492188 7.046875 -14.109375 C 7.578125 -13.734375 8.378906 -13.226562 9.453125 -12.59375 C 10.691406 -11.800781 11.644531 -11.148438 12.3125 -10.640625 C 12.976562 -10.128906 13.503906 -9.546875 13.890625 -8.890625 C 14.285156 -8.242188 14.484375 -7.472656 14.484375 -6.578125 C 14.484375 -5.222656 14.175781 -4.023438 13.5625 -2.984375 C 12.957031 -1.953125 12.113281 -1.148438 11.03125 -0.578125 C 9.957031 -0.015625 8.722656 0.265625 7.328125 0.265625 Z M 7.328125 0.265625 "/></g></g></g><g fill="#c1f400" fill-opacity="1"><g transform="translate(245.369166, 200.623684)"><g><path d="M 7.78125 0.265625 C 6.039062 0.265625 4.65625 -0.21875 3.625 -1.1875 C 2.601562 -2.164062 2.09375 -3.492188 2.09375 -5.171875 C 2.09375 -5.367188 2.113281 -5.707031 2.15625 -6.1875 L 3.46875 -16.75 C 3.6875 -18.6875 4.453125 -20.238281 5.765625 -21.40625 C 7.085938 -22.570312 8.71875 -23.15625 10.65625 -23.15625 C 12.425781 -23.15625 13.820312 -22.671875 14.84375 -21.703125 C 15.875 -20.734375 16.390625 -19.421875 16.390625 -17.765625 C 16.390625 -17.566406 16.363281 -17.25 16.3125 -16.8125 L 16.28125 -16.515625 C 16.257812 -16.429688 16.21875 -16.351562 16.15625 -16.28125 C 16.09375 -16.21875 16.015625 -16.1875 15.921875 -16.1875 L 14.296875 -16.125 C 14.097656 -16.125 14 -16.222656 14 -16.421875 L 14.0625 -16.875 C 14.082031 -17.03125 14.09375 -17.257812 14.09375 -17.5625 C 14.09375 -18.65625 13.757812 -19.519531 13.09375 -20.15625 C 12.425781 -20.800781 11.53125 -21.125 10.40625 -21.125 C 9.132812 -21.125 8.070312 -20.734375 7.21875 -19.953125 C 6.375 -19.179688 5.875 -18.15625 5.71875 -16.875 L 4.375 -6.015625 C 4.351562 -5.859375 4.34375 -5.640625 4.34375 -5.359375 C 4.34375 -4.273438 4.671875 -3.40625 5.328125 -2.75 C 5.984375 -2.09375 6.878906 -1.765625 8.015625 -1.765625 C 9.273438 -1.765625 10.335938 -2.15625 11.203125 -2.9375 C 12.066406 -3.726562 12.570312 -4.753906 12.71875 -6.015625 L 12.78125 -6.46875 C 12.832031 -6.664062 12.953125 -6.765625 13.140625 -6.765625 L 14.75 -6.671875 C 14.96875 -6.671875 15.054688 -6.5625 15.015625 -6.34375 L 14.984375 -6.109375 C 14.765625 -4.191406 13.992188 -2.648438 12.671875 -1.484375 C 11.347656 -0.316406 9.71875 0.265625 7.78125 0.265625 Z M 7.78125 0.265625 "/></g></g></g><g fill="#c1f400" fill-opacity="1"><g transform="translate(260.801065, 200.623684)"><g><path d="M 15.140625 -22.5625 C 15.179688 -22.78125 15.300781 -22.890625 15.5 -22.890625 L 17.109375 -22.890625 C 17.210938 -22.890625 17.289062 -22.859375 17.34375 -22.796875 C 17.40625 -22.734375 17.421875 -22.65625 17.390625 -22.5625 L 14.65625 -0.328125 C 14.65625 -0.242188 14.617188 -0.164062 14.546875 -0.09375 C 14.484375 -0.03125 14.398438 0 14.296875 0 L 12.6875 0 C 12.46875 0 12.378906 -0.109375 12.421875 -0.328125 L 13.640625 -10.328125 C 13.640625 -10.421875 13.609375 -10.46875 13.546875 -10.46875 L 5.65625 -10.46875 C 5.570312 -10.46875 5.53125 -10.421875 5.53125 -10.328125 L 4.28125 -0.328125 C 4.238281 -0.109375 4.117188 0 3.921875 0 L 2.328125 0 C 2.128906 0 2.03125 -0.109375 2.03125 -0.328125 L 4.78125 -22.5625 C 4.820312 -22.78125 4.941406 -22.890625 5.140625 -22.890625 L 6.734375 -22.890625 C 6.929688 -22.890625 7.03125 -22.78125 7.03125 -22.5625 L 5.78125 -12.625 C 5.78125 -12.539062 5.828125 -12.5 5.921875 -12.5 L 13.765625 -12.5 C 13.828125 -12.5 13.882812 -12.539062 13.9375 -12.625 Z M 15.140625 -22.5625 "/></g></g></g><g fill="#c1f400" fill-opacity="1"><g transform="translate(277.377293, 200.623684)"><g><path d="M 7.875 0.265625 C 6.113281 0.265625 4.710938 -0.238281 3.671875 -1.25 C 2.640625 -2.269531 2.125 -3.628906 2.125 -5.328125 C 2.125 -5.546875 2.144531 -5.894531 2.1875 -6.375 L 3.4375 -16.484375 C 3.675781 -18.484375 4.460938 -20.09375 5.796875 -21.3125 C 7.140625 -22.539062 8.785156 -23.15625 10.734375 -23.15625 C 12.492188 -23.15625 13.894531 -22.640625 14.9375 -21.609375 C 15.988281 -20.585938 16.515625 -19.226562 16.515625 -17.53125 C 16.515625 -17.3125 16.492188 -16.960938 16.453125 -16.484375 L 15.203125 -6.375 C 14.960938 -4.394531 14.164062 -2.789062 12.8125 -1.5625 C 11.46875 -0.34375 9.820312 0.265625 7.875 0.265625 Z M 8.109375 -1.765625 C 9.398438 -1.765625 10.484375 -2.175781 11.359375 -3 C 12.242188 -3.832031 12.773438 -4.925781 12.953125 -6.28125 L 14.21875 -16.546875 C 14.25 -16.722656 14.265625 -16.960938 14.265625 -17.265625 C 14.265625 -18.441406 13.925781 -19.378906 13.25 -20.078125 C 12.570312 -20.773438 11.65625 -21.125 10.5 -21.125 C 9.207031 -21.125 8.117188 -20.703125 7.234375 -19.859375 C 6.359375 -19.023438 5.84375 -17.921875 5.6875 -16.546875 L 4.421875 -6.28125 C 4.390625 -6.125 4.375 -5.882812 4.375 -5.5625 C 4.375 -4.40625 4.710938 -3.484375 5.390625 -2.796875 C 6.066406 -2.109375 6.972656 -1.765625 8.109375 -1.765625 Z M 8.109375 -1.765625 "/></g></g></g><g fill="#c1f400" fill-opacity="1"><g transform="translate(293.20153, 200.623684)"><g><path d="M 7.875 0.265625 C 6.113281 0.265625 4.710938 -0.238281 3.671875 -1.25 C 2.640625 -2.269531 2.125 -3.628906 2.125 -5.328125 C 2.125 -5.546875 2.144531 -5.894531 2.1875 -6.375 L 3.4375 -16.484375 C 3.675781 -18.484375 4.460938 -20.09375 5.796875 -21.3125 C 7.140625 -22.539062 8.785156 -23.15625 10.734375 -23.15625 C 12.492188 -23.15625 13.894531 -22.640625 14.9375 -21.609375 C 15.988281 -20.585938 16.515625 -19.226562 16.515625 -17.53125 C 16.515625 -17.3125 16.492188 -16.960938 16.453125 -16.484375 L 15.203125 -6.375 C 14.960938 -4.394531 14.164062 -2.789062 12.8125 -1.5625 C 11.46875 -0.34375 9.820312 0.265625 7.875 0.265625 Z M 8.109375 -1.765625 C 9.398438 -1.765625 10.484375 -2.175781 11.359375 -3 C 12.242188 -3.832031 12.773438 -4.925781 12.953125 -6.28125 L 14.21875 -16.546875 C 14.25 -16.722656 14.265625 -16.960938 14.265625 -17.265625 C 14.265625 -18.441406 13.925781 -19.378906 13.25 -20.078125 C 12.570312 -20.773438 11.65625 -21.125 10.5 -21.125 C 9.207031 -21.125 8.117188 -20.703125 7.234375 -19.859375 C 6.359375 -19.023438 5.84375 -17.921875 5.6875 -16.546875 L 4.421875 -6.28125 C 4.390625 -6.125 4.375 -5.882812 4.375 -5.5625 C 4.375 -4.40625 4.710938 -3.484375 5.390625 -2.796875 C 6.066406 -2.109375 6.972656 -1.765625 8.109375 -1.765625 Z M 8.109375 -1.765625 "/></g></g></g><g fill="#c1f400" fill-opacity="1"><g transform="translate(309.025767, 200.623684)"><g><path d="M 2.328125 0 C 2.128906 0 2.03125 -0.109375 2.03125 -0.328125 L 4.78125 -22.5625 C 4.820312 -22.78125 4.941406 -22.890625 5.140625 -22.890625 L 6.734375 -22.890625 C 6.929688 -22.890625 7.03125 -22.78125 7.03125 -22.5625 L 4.515625 -2.15625 C 4.515625 -2.113281 4.523438 -2.082031 4.546875 -2.0625 C 4.566406 -2.039062 4.585938 -2.03125 4.609375 -2.03125 L 13.859375 -2.03125 C 14.078125 -2.03125 14.164062 -1.921875 14.125 -1.703125 L 13.96875 -0.328125 C 13.925781 -0.109375 13.804688 0 13.609375 0 Z M 2.328125 0 "/></g></g></g></svg>